<svg xmlns="http://www.w3.org/2000/svg" width="1024" height="1024" viewBox="0 0 1024 1024" role="img" aria-label="CHIEF coin">
  <defs>
    <radialGradient id="coinCore" cx="35%" cy="30%" r="75%">
      <stop offset="0%" stop-color="#ffe4a3"/>
      <stop offset="60%" stop-color="#ffb347"/>
      <stop offset="100%" stop-color="#d16b00"/>
    </radialGradient>
    <linearGradient id="rim" x1="0" y1="0" x2="1" y2="1">
      <stop offset="0%" stop-color="#fff5d1"/>
      <stop offset="40%" stop-color="#f4bf57"/>
      <stop offset="100%" stop-color="#a44f00"/>
    </linearGradient>
    <radialGradient id="shine" cx="20%" cy="15%" r="45%">
      <stop offset="0%" stop-color="#ffffff" stop-opacity="0.9"/>
      <stop offset="100%" stop-color="#ffffff" stop-opacity="0"/>
    </radialGradient>
  </defs>

  <rect width="1024" height="1024" fill="#101010"/>

  <circle cx="512" cy="512" r="430" fill="url(#rim)"/>
  <circle cx="512" cy="512" r="370" fill="url(#coinCore)"/>
  <circle cx="512" cy="512" r="300" fill="none" stroke="#8b4300" stroke-width="14" opacity="0.5"/>

  <path d="M305 448c0-105 88-183 207-183 75 0 140 27 179 75l-66 52c-24-28-61-43-109-43-71 0-119 41-119 97 0 56 48 97 119 97 48 0 85-15 109-43l66 52c-39 48-104 75-179 75-119 0-207-78-207-179z"
        fill="#181818"/>

  <text x="512" y="715" text-anchor="middle" font-family="Arial, sans-serif" font-size="92" font-weight="800" fill="#181818" letter-spacing="6">CHIEF</text>

  <ellipse cx="400" cy="350" rx="230" ry="150" fill="url(#shine)"/>
</svg>